<svg id="Layer_1" data-name="Layer 1" xmlns="http://www.w3.org/2000/svg" viewBox="0 0 17.89 18.38"><defs><style>.cls-1{fill:#00a385;}</style></defs><path class="cls-1" d="M98.51,32.94a8.94,8.94,0,0,0-12.17-6.61l-.07,0,.07-.18a.77.77,0,0,0-.48-1l-.38,0-.06,0a.83.83,0,0,0-.47.45l-.22.55c-.19.48-.38,1-.56,1.44a1,1,0,0,0,0,.74,1,1,0,0,0,.59.51l.34.11.6.19,1,.32a.8.8,0,0,0,.74-.12.76.76,0,0,0-.27-1.3l-.59-.18-.07,0a7.2,7.2,0,0,1,2.51-.67,7.44,7.44,0,0,1,8.06,8.13,7.05,7.05,0,0,1-1.56,3.87A7.3,7.3,0,0,1,88.66,42a6.84,6.84,0,0,1-3.51-1.5,7.43,7.43,0,0,1-2.08-9.18.82.82,0,0,0,.05-.63.75.75,0,0,0-1.4,0,8.95,8.95,0,0,0,8,12.92,9.41,9.41,0,0,0,1.89-.2A8.88,8.88,0,0,0,98.51,32.94Z" transform="translate(-80.78 -25.16)"/><path class="cls-1" d="M87.94,35a1.85,1.85,0,0,0,1.87,1.84H92a1.05,1.05,0,0,0,.24,0,.74.74,0,0,0-.2-1.46H90c-.42,0-.53-.12-.53-.53V31.68a.75.75,0,0,0-.74-.82h0a.72.72,0,0,0-.52.2.84.84,0,0,0-.22.62c0,.4,0,.79,0,1.19v1C87.93,34.24,87.93,34.63,87.94,35Z" transform="translate(-80.78 -25.16)"/></svg>