<svg id="Layer_1" data-name="Layer 1" xmlns="http://www.w3.org/2000/svg" viewBox="0 0 12.08 12.08"><defs><style>.cls-1{fill:#fbb040;}</style></defs><path class="cls-1" d="M95.38,34.84h-.92a.47.47,0,0,1-.42-.3.48.48,0,0,1,.06-.5.41.41,0,0,1,.35-.19c.37,0,.74,0,1.11,0a.49.49,0,0,1,.45.37v.24A.57.57,0,0,1,95.38,34.84Z" transform="translate(-83.93 -28.29)"/><path class="cls-1" d="M89.67,30.21a.45.45,0,0,1-.19-.35c0-.37,0-.75,0-1.12s.17-.36.38-.45h.23a.57.57,0,0,1,.39.64c0,.31,0,.61,0,.92a.45.45,0,0,1-.3.42A.5.5,0,0,1,89.67,30.21Z" transform="translate(-83.93 -28.29)"/><path class="cls-1" d="M90,37.35a3,3,0,1,1,3-3A3,3,0,0,1,90,37.35Z" transform="translate(-83.93 -28.29)"/><path class="cls-1" d="M92.83,31.49a.5.5,0,0,1,0-.73c.23-.23.46-.47.7-.69a.48.48,0,0,1,.55-.11.5.5,0,0,1,.15.83q-.33.34-.69.69A.49.49,0,0,1,92.83,31.49Z" transform="translate(-83.93 -28.29)"/><path class="cls-1" d="M93.55,38.62a10.46,10.46,0,0,1-.74-.75,1.26,1.26,0,0,1-.16-.33h0a.48.48,0,0,1,.3-.46.46.46,0,0,1,.53.09c.25.24.5.49.74.74a.5.5,0,0,1-.7.72Z" transform="translate(-83.93 -28.29)"/><path class="cls-1" d="M86.44,31.5q-.39-.36-.75-.75a.69.69,0,0,1-.13-.26.52.52,0,0,1,.29-.53.49.49,0,0,1,.54.08q.39.36.75.75a.5.5,0,0,1-.7.71Z" transform="translate(-83.93 -28.29)"/><path class="cls-1" d="M85.85,38.7a.51.51,0,0,1-.14-.82l.7-.7a.51.51,0,0,1,.71,0,.5.5,0,0,1,0,.71c-.23.25-.47.49-.71.72A.49.49,0,0,1,85.85,38.7Z" transform="translate(-83.93 -28.29)"/><path class="cls-1" d="M89.56,40.15a1.58,1.58,0,0,1-.09-.31v-.48h0a5,5,0,0,1,0-.55.48.48,0,0,1,.43-.45.48.48,0,0,1,.56.46c0,.36,0,.73,0,1.09a.5.5,0,0,1-.91.24Z" transform="translate(-83.93 -28.29)"/><path class="cls-1" d="M84.38,34.83a.49.49,0,0,1-.44-.43.51.51,0,0,1,.35-.55l.1,0h1.1a.47.47,0,0,1,.42.3.5.5,0,0,1-.07.51.46.46,0,0,1-.34.19c-.18,0-.37,0-.55,0S84.57,34.84,84.38,34.83Z" transform="translate(-83.93 -28.29)"/></svg>