<svg id="Layer_1" data-name="Layer 1" xmlns="http://www.w3.org/2000/svg" viewBox="0 0 17.84 14.97"><defs><style>.cls-1{fill:#6d6e71;}</style></defs><path class="cls-1" d="M71.9,28.6h0Z" transform="translate(-70.77 -27.47)"/><path class="cls-1" d="M87.87,27.47H71.36a.56.56,0,0,0-.59.6c0,.55,0,1.1,0,1.64a2.87,2.87,0,0,0,1.64,2.65.23.23,0,0,1,.14.23c0,.9,0,1.81,0,2.71a8,8,0,0,0,.12,1.3,7.14,7.14,0,0,0,14.16-1.27c0-.92,0-1.84,0-2.75a.2.2,0,0,1,.13-.21,2.85,2.85,0,0,0,1.42-1.52,5.23,5.23,0,0,0,.23-.77v-2.2A.7.7,0,0,0,87.87,27.47Zm-2.15,5.38c0,.8,0,1.59,0,2.39a5.22,5.22,0,0,1-.12,1.13c0,.17-.07.34-.11.51a4.44,4.44,0,0,1-.4,1.07l-.18.34-.27.43-.27.35-.07.08a1.62,1.62,0,0,1-.25.28l-.12.12-.21.21h0l-.23.2v0a5.08,5.08,0,0,1-1.21.77h0a.1.1,0,0,1,0,0l-.06,0-.11,0a4.52,4.52,0,0,1-.47.18,4.34,4.34,0,0,1-.48.14l-.23,0a5.41,5.41,0,0,1-2.23,0,2.31,2.31,0,0,1-.52-.12,2.16,2.16,0,0,1-.49-.16,2.85,2.85,0,0,1-.46-.17.26.26,0,0,1-.1-.07,5.61,5.61,0,0,1-1.18-.75v0l-.21-.18-.21-.21A4.53,4.53,0,0,1,75,39l0,0a5.5,5.5,0,0,1-1-2.06,4.43,4.43,0,0,1-.18-.82,8.48,8.48,0,0,1-.06-.87c0-.79,0-1.58,0-2.37v-.18H85.72Zm1.76-2.94v0l0,.06a1,1,0,0,1,0,.24,1.73,1.73,0,0,1-1,1.12l-.07,0a1.66,1.66,0,0,1-.66.14h-12a1.94,1.94,0,0,1-.73-.14l0,0a1.65,1.65,0,0,1-.83-.71.61.61,0,0,1-.11-.21,1.4,1.4,0,0,1-.13-.34,1.09,1.09,0,0,1,0-.25V28.61H87.5C87.48,29.05,87.54,29.48,87.48,29.91Z" transform="translate(-70.77 -27.47)"/><path class="cls-1" d="M79.71,36.29a1.72,1.72,0,0,0-.09,3.44A1.7,1.7,0,0,0,81.41,38,1.73,1.73,0,0,0,79.71,36.29Zm0,2.33a.6.6,0,0,1-.6-.6.6.6,0,0,1,1.2,0A.6.6,0,0,1,79.69,38.62Z" transform="translate(-70.77 -27.47)"/></svg>