<svg id="Layer_1" data-name="Layer 1" xmlns="http://www.w3.org/2000/svg" viewBox="0 0 5.6 6.85"><defs><style>.cls-1{fill:#c34126;}</style></defs><path class="cls-1" d="M92.56,36.47a1.2,1.2,0,0,1-1.07,1.18l-.2,0H88.8A1.18,1.18,0,0,1,87.69,37a1.26,1.26,0,0,1-.11-.51V33a.32.32,0,0,1,.63-.06v3.45a.6.6,0,0,0,.62.63h2.48a.6.6,0,0,0,.63-.63V33a.31.31,0,0,1,.22-.3.3.3,0,0,1,.35.12.41.41,0,0,1,0,.19C92.57,34.16,92.57,35.32,92.56,36.47Z" transform="translate(-87.27 -30.81)"/><path class="cls-1" d="M92.87,32a.32.32,0,0,0-.32-.27H91.32v-.59a.32.32,0,0,0-.34-.35H89.17a.32.32,0,0,0-.34.35v.59H87.59a.31.31,0,0,0-.32.31.31.31,0,0,0,.33.31h5A.3.3,0,0,0,92.87,32Zm-2.18-.28H89.46v-.3h1.23Z" transform="translate(-87.27 -30.81)"/><path class="cls-1" d="M89.76,33.63c0,.72,0,1.43,0,2.15a.31.31,0,1,1-.62,0V33.63a.31.31,0,0,1,.31-.32A.3.3,0,0,1,89.76,33.63Z" transform="translate(-87.27 -30.81)"/><path class="cls-1" d="M91,33.64v2.14a.31.31,0,0,1-.31.33.32.32,0,0,1-.32-.33V33.63a.32.32,0,1,1,.63,0Z" transform="translate(-87.27 -30.81)"/></svg>