<svg id="Layer_1" data-name="Layer 1" xmlns="http://www.w3.org/2000/svg" viewBox="0 0 12.3 17.22"><defs><style>.cls-1{fill:#6d6e71;}</style></defs><path class="cls-1" d="M126.4,31.24c-.17,0-.35-.06-.53-.1v-2a4,4,0,0,0-.44-1.83,4.36,4.36,0,0,0-5.53-2,4.05,4.05,0,0,0-2.62,3.84v2a1.91,1.91,0,0,0-1.86,2c0,1.86,0,3.71,0,5.57,0,.12,0,.24,0,.36A3.51,3.51,0,0,0,119,42.22h5.24a4.38,4.38,0,0,0,.51,0,3.48,3.48,0,0,0,3-3.38c0-1.93,0-3.86,0-5.8A1.82,1.82,0,0,0,126.4,31.24Zm-7.85-2.49A2.83,2.83,0,0,1,121,26.29a3.45,3.45,0,0,1,1.72.14,2.78,2.78,0,0,1,1.92,2.51c.05.73,0,1.47,0,2.22h-6.11l0,0C118.52,30.33,118.49,29.53,118.55,28.75Zm7.94,9.92a2.28,2.28,0,0,1-1.79,2.26,2.33,2.33,0,0,1-.53.06H119a2.28,2.28,0,0,1-2.33-2.33V33.12a.65.65,0,0,1,.74-.73h8.34a.65.65,0,0,1,.75.75Z" transform="translate(-115.42 -25)"/><path class="cls-1" d="M122.31,36.44a.28.28,0,0,0-.13.25c0,.6,0,1.2,0,1.8a.62.62,0,1,1-1.23,0V36.73a.32.32,0,0,0-.14-.31,1.21,1.21,0,0,1-.41-1.37,1.23,1.23,0,0,1,1.15-.82,1.23,1.23,0,0,1,.75,2.21Z" transform="translate(-115.42 -25)"/></svg>