<svg id="Layer_1" data-name="Layer 1" xmlns="http://www.w3.org/2000/svg" viewBox="0 0 6.16 6.16"><defs><style>.cls-1{fill:#00a385;}</style></defs><path class="cls-1" d="M93,32.29l-1-.94a.48.48,0,0,0-.71,0l-.9.89L88.27,34.4l-1,1a.53.53,0,0,0-.16.28c0,.28-.07.57-.11.85a3.06,3.06,0,0,1,0,.32V37l0,.1a.42.42,0,0,0,.24.23l.06,0h.19l1-.13A.64.64,0,0,0,89,37l4-4A.48.48,0,0,0,93,32.29Zm-1.59,1.45L88.6,36.53a.23.23,0,0,1-.16.08l-.77.1h-.06l0-.26c0-.2,0-.41.08-.61a.12.12,0,0,1,0-.08L90,33.55l.66-.66.81.81Zm.48-.5-.78-.78.59-.6.78.79Z" transform="translate(-86.97 -31.19)"/><path class="cls-1" d="M87,37l0,.1a.42.42,0,0,0,.24.23l.06,0H87Z" transform="translate(-86.97 -31.19)"/></svg>