<svg id="Layer_1" data-name="Layer 1" xmlns="http://www.w3.org/2000/svg" viewBox="0 0 68.17 68.04"><defs><style>.cls-1{fill:#c34126;}</style></defs><path class="cls-1" d="M1370.87,3397.91a14.8,14.8,0,1,0-19.79,15.86c1.09.4,2.26.6,3.39.9h3.46a4.29,4.29,0,0,1,.44-.13A14.82,14.82,0,0,0,1370.87,3397.91Zm-8.21,8.45a1.21,1.21,0,0,1-1.81-.17c-1.39-1.37-2.76-2.76-4.14-4.13-.17-.17-.35-.33-.59-.55l-2.13,2.16c-.86.86-1.72,1.74-2.59,2.59a1.14,1.14,0,1,1-1.59-1.6c1.42-1.44,2.84-2.87,4.29-4.28.38-.37.35-.6,0-1-1.37-1.33-2.71-2.69-4-4a2.74,2.74,0,0,1-.47-.56,1,1,0,0,1,.18-1.39,1,1,0,0,1,1.39-.1,9.6,9.6,0,0,1,.87.82l4.11,4.13.58-.53,3.82-3.81a5.55,5.55,0,0,1,.42-.42,1.15,1.15,0,0,1,1.67-.09,1.12,1.12,0,0,1-.1,1.71c-1.37,1.39-2.76,2.76-4.14,4.14-.18.19-.35.38-.58.61l.53.56,4.14,4.14C1363.07,3405.23,1363.14,3405.85,1362.66,3406.36Z" transform="translate(-1302.82 -3346.63)"/><path class="cls-1" d="M1341.43,3387.38c0,.73-.34,1.15-1,1.21a1,1,0,0,1-1.23-1c-.09-.77-.06-1.55-.09-2.33a39.83,39.83,0,0,0-.23-4.64,10.62,10.62,0,0,0-9.27-8.94,10.85,10.85,0,0,0-12.08,9.41,18,18,0,0,0-.1,1.93c0,4.59,0,9.18,0,13.77a11.56,11.56,0,0,0,4.58,9.59c2.47,2,4.91,4,7.35,6,1,.82,1,1.44.07,2.28h-.8c-3-2.5-6.11-4.93-9.07-7.52a11.68,11.68,0,0,1-4.22-8.53c-.18-5.45-.14-10.91-.11-16.36a13,13,0,0,1,.56-3.61,12.72,12.72,0,0,1,9.06-8.83,13,13,0,0,1,16.19,10.06,22.46,22.46,0,0,1,.31,3.37C1341.43,3384.63,1341.42,3386,1341.43,3387.38Z" transform="translate(-1302.82 -3346.63)"/><path class="cls-1" d="M1310.22,3365.91a23.94,23.94,0,0,0-5.06,8.5c-.17.52-.37,1-1,1.11s-1-.31-1.34-.79v-.53a49,49,0,0,1,2.3-5,48.09,48.09,0,0,1,3.49-4.83,1.13,1.13,0,0,1,1.73-.29C1310.86,3364.54,1310.82,3365.26,1310.22,3365.91Z" transform="translate(-1302.82 -3346.63)"/><path class="cls-1" d="M1337.85,3395.35a1,1,0,0,1-1.46-.51,21.7,21.7,0,0,1-1.43-3.71,20.75,20.75,0,0,1-.4-4c-.07-1.64,0-3.28,0-4.92a6.24,6.24,0,0,0-12.41-.77,23.51,23.51,0,0,0-.12,2.78c0,3.34,0,6.66,0,10a11.91,11.91,0,0,0,4.77,10.11c2.85,2.25,5.64,4.58,8.43,6.92a1.69,1.69,0,0,1,.57,1.1,1.13,1.13,0,0,1-.64.88,1.5,1.5,0,0,1-1.2-.21c-2-1.53-3.87-3.12-5.79-4.69-1.35-1.12-2.73-2.19-4-3.38a12.62,12.62,0,0,1-4.26-9.22c-.07-2.37,0-4.74,0-7.11h0c0-2.37-.12-4.76,0-7.11a8.46,8.46,0,0,1,16.88.61c.06,2.24.06,4.48.1,6.72a10.28,10.28,0,0,0,1.16,4.33c.09.2.2.4.29.6A1.12,1.12,0,0,1,1337.85,3395.35Z" transform="translate(-1302.82 -3346.63)"/><path class="cls-1" d="M1338.45,3409.46a1.07,1.07,0,0,1-1.55.15c-.94-.73-1.86-1.51-2.79-2.26-1.71-1.41-3.46-2.78-5.13-4.23a12.91,12.91,0,0,1-4.59-9.68c-.05-1.78,0-3.55,0-5.33h0c0-2,0-3.94,0-5.92a3.59,3.59,0,0,1,2.39-3.44,3.64,3.64,0,0,1,4,.68,4,4,0,0,1,1.42,3.17c0,2.42,0,4.84,0,7.26a11.42,11.42,0,0,0,4.53,9.48c.29.24.59.47.86.72a1.12,1.12,0,0,1,.16,1.61,1.15,1.15,0,0,1-1.56.12,14,14,0,0,1-6.21-11.68c0-2.42,0-4.84,0-7.26a2.93,2.93,0,0,0-.27-1.27,1.56,1.56,0,0,0-1.78-.86,1.6,1.6,0,0,0-1.32,1.39,5.12,5.12,0,0,0-.08.87c0,3.43,0,6.87.08,10.3a10.78,10.78,0,0,0,4.09,8.4c2.38,2,4.8,3.93,7.21,5.9a4.25,4.25,0,0,1,.41.35A1.05,1.05,0,0,1,1338.45,3409.46Z" transform="translate(-1302.82 -3346.63)"/><path class="cls-1" d="M1354.81,3379.3a1.09,1.09,0,0,1-.88,1.29,1.12,1.12,0,0,1-1.32-1,54.9,54.9,0,0,0-1.59-6.15,23.37,23.37,0,0,0-10.3-12.14,24.15,24.15,0,0,0-12.36-3.41c-.86.06-1.72.1-2.58.17s-1.34-.32-1.4-1,.34-1.15,1.15-1.23a26.66,26.66,0,0,1,29.28,23.46Z" transform="translate(-1302.82 -3346.63)"/><path class="cls-1" d="M1330,3361.35c0,.66-.53,1.13-1.38,1.12a18.25,18.25,0,0,0-6.1.87c-7.57,2.54-12.2,7.76-13.75,15.57a41.48,41.48,0,0,0-.34,6.22c0,.43,0,.85,0,1.27a1.1,1.1,0,1,1-2.2-.12c0-.88,0-1.77,0-2.88a21.43,21.43,0,0,1,2.44-11.09,21.67,21.67,0,0,1,16.21-11.78,28,28,0,0,1,3.78-.28C1329.43,3360.21,1330,3360.68,1330,3361.35Z" transform="translate(-1302.82 -3346.63)"/><path class="cls-1" d="M1337.24,3353.49c-.15.71-.78,1-1.69.79a29,29,0,0,0-7.3-.92,28.52,28.52,0,0,0-10,1.79,29.2,29.2,0,0,0-10.64,6.87l-.24.23a1.15,1.15,0,0,1-1.66.06,1.17,1.17,0,0,1,.12-1.67c.47-.5,1-1,1.48-1.42a30.78,30.78,0,0,1,17.8-7.91c.53-.06,1-.1,1.59-.12s1,0,1.53,0a29,29,0,0,1,7.76.93C1336.93,3352.34,1337.37,3352.81,1337.24,3353.49Z" transform="translate(-1302.82 -3346.63)"/><path class="cls-1" d="M1318.32,3370.69a15.62,15.62,0,0,0-3.72,4.72,15,15,0,0,0-1.67,6.79c0,3.06,0,6.11,0,9.17,0,1.11-.37,1.66-1.1,1.67s-1.15-.54-1.15-1.68v-4.85h-.11c.12-2.32.08-4.66.4-7a16.77,16.77,0,0,1,6-10.59,1.17,1.17,0,0,1,1.67,0C1319.07,3369.48,1319,3370.13,1318.32,3370.69Z" transform="translate(-1302.82 -3346.63)"/><path class="cls-1" d="M1335.37,3349.56a16.39,16.39,0,0,1-2-.28,33,33,0,0,0-19.33,2.58c-.36.17-.73.34-1.09.49-.81.35-1.44.19-1.72-.42s0-1.2.75-1.6a36,36,0,0,1,7-2.59,32.51,32.51,0,0,1,8.94-1.1,30.52,30.52,0,0,1,7.32.72,1.82,1.82,0,0,1,1.06.75A1,1,0,0,1,1335.37,3349.56Z" transform="translate(-1302.82 -3346.63)"/><path class="cls-1" d="M1345.49,3380.87a1.32,1.32,0,0,1-1.06.46,1.3,1.3,0,0,1-.85-.77c-.26-.65-.3-1.38-.51-2.06a15.39,15.39,0,0,0-12-11.2c-.19-.05-.4-.08-.58-.14a1.07,1.07,0,0,1-.92-1.3c.1-.57.55-.88,1.37-.84a16.11,16.11,0,0,1,5.63,1.93,17.65,17.65,0,0,1,9,12.79A1.58,1.58,0,0,1,1345.49,3380.87Z" transform="translate(-1302.82 -3346.63)"/><path class="cls-1" d="M1352.81,3364.75a1.13,1.13,0,0,1-1.72-.31,29.22,29.22,0,0,0-7.74-6.84c-1-.61-2.11-1.14-3.17-1.68-.5-.27-.9-.58-.88-1.21a1.09,1.09,0,0,1,1.61-.91,18.4,18.4,0,0,1,1.68.8,31.73,31.73,0,0,1,10.23,8.44C1353.34,3363.7,1353.33,3364.3,1352.81,3364.75Z" transform="translate(-1302.82 -3346.63)"/><path class="cls-1" d="M1350.34,3380.37c0,.77-.36,1.23-1,1.28s-1.06-.39-1.24-1.2c-.39-1.77-.73-3.56-1.27-5.28a17.42,17.42,0,0,0-3.33-5.72l-.34-.41a1.17,1.17,0,0,1,.08-1.62,1.09,1.09,0,0,1,1.64.23,41.53,41.53,0,0,1,2.9,4.22A20.74,20.74,0,0,1,1350.34,3380.37Z" transform="translate(-1302.82 -3346.63)"/><path class="cls-1" d="M1321,3359a25.85,25.85,0,0,0-6.93,3.46,3,3,0,0,1-.69.3,1.09,1.09,0,0,1-1.19-.79,1.08,1.08,0,0,1,.51-1.26c1.26-.78,2.5-1.62,3.82-2.28a35,35,0,0,1,3.75-1.52c.78-.28,1.38,0,1.61.57A1.15,1.15,0,0,1,1321,3359Z" transform="translate(-1302.82 -3346.63)"/><path class="cls-1" d="M1341.49,3365.28c-.18.83-1,1.09-1.83.64-1.39-.74-2.77-1.48-4.19-2.16a21.37,21.37,0,0,0-2.14-.69,1.14,1.14,0,0,1-.8-1.29c.11-.55.57-.89,1.37-.87.43.13,1,.3,1.65.5a20.76,20.76,0,0,1,5.28,2.6A1.19,1.19,0,0,1,1341.49,3365.28Z" transform="translate(-1302.82 -3346.63)"/><path class="cls-1" d="M1312.72,3404.42a1,1,0,0,1-1.35-.84c-.28-1.18-.48-2.38-.66-3.58a9.76,9.76,0,0,1,0-1.53h0v-1.72c0-.81.45-1.33,1.09-1.36s1.13.52,1.15,1.36-.05,1.69,0,2.52c.11,1.13.29,2.24.45,3.35,0,.13.07.26.09.39A1.09,1.09,0,0,1,1312.72,3404.42Z" transform="translate(-1302.82 -3346.63)"/><path class="cls-1" d="M1326.42,3367.1q-2.39.71-4.77,1.38a1.06,1.06,0,0,1-1.32-.6,1.12,1.12,0,0,1,.47-1.39,17,17,0,0,1,5.34-1.56,1.11,1.11,0,0,1,.28,2.17Z" transform="translate(-1302.82 -3346.63)"/><path class="cls-1" d="M1345,3352.17a1.08,1.08,0,0,1-1.44.45c-1.37-.59-2.76-1.2-4.12-1.82a1.14,1.14,0,0,1-.75-1.33,1.12,1.12,0,0,1,1.19-.81,2.34,2.34,0,0,1,.48.12c1.33.58,2.68,1.15,4,1.77A1.12,1.12,0,0,1,1345,3352.17Z" transform="translate(-1302.82 -3346.63)"/></svg>