<svg id="Layer_1" data-name="Layer 1" xmlns="http://www.w3.org/2000/svg" viewBox="0 0 69.5 70.64"><defs><style>.cls-1{fill:#00a385;}</style></defs><path class="cls-1" d="M1357.51,3386.23a14.16,14.16,0,1,0,13.44,14.71A14.12,14.12,0,0,0,1357.51,3386.23Zm8.14,10.47q-5.31,5.34-10.66,10.66a2.32,2.32,0,0,1-3.52,0c-1.19-1.16-2.36-2.35-3.54-3.53-.64-.65-.7-1.37-.17-1.87s1.16-.43,1.8.21c1.22,1.21,2.42,2.42,3.66,3.67l.62-.6,9.78-9.78.36-.36c.68-.65,1.36-.71,1.87-.18S1366.28,3396.07,1365.65,3396.7Z" transform="translate(-1301.46 -3345.09)"/><path class="cls-1" d="M1341.56,3387.35c0,.88-.49,1.41-1.27,1.34a1.09,1.09,0,0,1-1.08-1.17c-.06-1.67-.11-3.33-.12-5a11.39,11.39,0,0,0-4-8.81,11.15,11.15,0,0,0-15.23.76,11.37,11.37,0,0,0-3.16,8.07v14.79a11.77,11.77,0,0,0,4.58,9.59c2.54,2.06,5,4.14,7.57,6.21a5.07,5.07,0,0,1,.56.48,1.22,1.22,0,0,1,.2,1.65,1.15,1.15,0,0,1-1.7.17c-1.12-.87-2.21-1.79-3.31-2.69-2-1.63-4-3.2-5.86-4.92a13.12,13.12,0,0,1-4.37-9.77c0-2.7,0-5.4,0-8.1h0c0-2.5,0-5,0-7.51a13.33,13.33,0,0,1,10.57-13.42,13.53,13.53,0,0,1,16.52,13.11C1341.45,3383.87,1341.53,3385.61,1341.56,3387.35Z" transform="translate(-1301.46 -3345.09)"/><path class="cls-1" d="M1337.82,3395.69a1.18,1.18,0,0,1-1.65-.63,14.24,14.24,0,0,1-1.8-7c0-1.89,0-3.78,0-5.66a6.45,6.45,0,0,0-12.81-1.25,24.35,24.35,0,0,0-.14,2.71c0,3.67,0,7.35,0,11a11.92,11.92,0,0,0,4.63,9.8c2.9,2.33,5.77,4.71,8.65,7.07a6.25,6.25,0,0,1,.72.63,1.18,1.18,0,0,1-1.5,1.79c-.56-.4-1.08-.86-1.61-1.29-2.65-2.18-5.32-4.34-8-6.53a13.9,13.9,0,0,1-5.28-11.31c0-2,0-4,0-6h0c0-2.28,0-4.56,0-6.84a8.83,8.83,0,0,1,17.65-.53c.08,2.45.07,4.9.12,7.35a10.22,10.22,0,0,0,1.21,4.42c.09.18.18.35.26.53A1.21,1.21,0,0,1,1337.82,3395.69Z" transform="translate(-1301.46 -3345.09)"/><path class="cls-1" d="M1338.46,3410.32a1.14,1.14,0,0,1-1.64.17c-1.14-.89-2.26-1.81-3.37-2.73-1.71-1.4-3.46-2.76-5.1-4.23a13.47,13.47,0,0,1-4.56-9.92c-.07-1.86,0-3.73,0-5.59h0c0-1.91,0-3.83,0-5.74a4.11,4.11,0,0,1,4-4.2,4.23,4.23,0,0,1,4.2,4.14c0,2.53,0,5.05,0,7.58a11.94,11.94,0,0,0,4.69,10,12.17,12.17,0,0,1,1,.8,1.18,1.18,0,0,1-1.49,1.82c-3.93-2.88-6.37-6.61-6.48-11.61-.07-2.72,0-5.44,0-8.16a2,2,0,0,0-1.31-2.08c-1.18-.35-2.19.49-2.22,1.91s0,2.64,0,4c0,2.65,0,5.3.13,7.94a10.29,10.29,0,0,0,3.57,7.26c2.49,2.19,5.09,4.23,7.65,6.33.28.24.58.46.84.71A1.12,1.12,0,0,1,1338.46,3410.32Z" transform="translate(-1301.46 -3345.09)"/><path class="cls-1" d="M1355.4,3379.17a1.13,1.13,0,0,1-1,1.25,1.15,1.15,0,0,1-1.34-1c-.22-1.05-.33-2.13-.6-3.17a24.82,24.82,0,0,0-15.32-17.64,23.68,23.68,0,0,0-11.3-1.66,8.51,8.51,0,0,1-.88,0,1.17,1.17,0,0,1-.13-2.34c1.07-.1,2.15-.15,2.88-.19,8.2.17,14.91,3,20.32,8.7a26.64,26.64,0,0,1,7.21,14.9A9.84,9.84,0,0,1,1355.4,3379.17Z" transform="translate(-1301.46 -3345.09)"/><path class="cls-1" d="M1329.65,3360.41c0,.81-.55,1.16-1.77,1.17a20.59,20.59,0,0,0-20.46,18.6c-.2,2-.11,4-.14,6a1.27,1.27,0,0,1-.78,1.3,1.14,1.14,0,0,1-1.57-1.1c0-1,0-2,0-2.89a22.66,22.66,0,0,1,4.4-14.75,22.25,22.25,0,0,1,14.93-9.16,28.64,28.64,0,0,1,3.59-.29C1329.11,3359.18,1329.66,3359.58,1329.65,3360.41Z" transform="translate(-1301.46 -3345.09)"/><path class="cls-1" d="M1337.16,3352.23a1.13,1.13,0,0,1-1.2,1c-1.11-.21-2.23-.46-3.37-.64a29.34,29.34,0,0,0-18.58,3,28.46,28.46,0,0,0-7.37,5.43c-.16.15-.31.31-.48.45a1.19,1.19,0,0,1-1.66,0,1.17,1.17,0,0,1,0-1.71c1.06-1,2.11-2.06,3.26-3a32.31,32.31,0,0,1,28.35-5.92A1.17,1.17,0,0,1,1337.16,3352.23Z" transform="translate(-1301.46 -3345.09)"/><path class="cls-1" d="M1317.67,3370a16.55,16.55,0,0,0-3.87,4.85,15.65,15.65,0,0,0-1.81,7.33c0,3.22,0,6.43,0,9.64,0,1-.55,1.56-1.33,1.46a1.18,1.18,0,0,1-1-1.3c0-1.86,0-3.73,0-5.59h-.08c.08-2.23,0-4.47.28-6.67a17.66,17.66,0,0,1,6.36-11.56,1.19,1.19,0,1,1,1.49,1.84Z" transform="translate(-1301.46 -3345.09)"/><path class="cls-1" d="M1336.41,3347.2a1.19,1.19,0,0,1-1.33,1c-1.16-.17-2.34-.38-3.53-.51a34.13,34.13,0,0,0-18.4,2.89c-.45.2-.88.43-1.34.61a1.19,1.19,0,1,1-.93-2.18,37.47,37.47,0,0,1,13.4-3.79,38.63,38.63,0,0,1,10.89.61C1336,3346,1336.49,3346.52,1336.41,3347.2Z" transform="translate(-1301.46 -3345.09)"/><path class="cls-1" d="M1346,3380a1.23,1.23,0,0,1-1,1.29,1.14,1.14,0,0,1-1.26-.89c-.19-.66-.26-1.35-.45-2a15.9,15.9,0,0,0-12.61-11.78,3.29,3.29,0,0,1-.84-.26,1.1,1.1,0,0,1-.52-1.45,1.14,1.14,0,0,1,1.38-.72,18.64,18.64,0,0,1,15.32,15.51C1346,3379.77,1346,3379.89,1346,3380Z" transform="translate(-1301.46 -3345.09)"/><path class="cls-1" d="M1353.89,3363.1c-.28.35-.48.81-.82,1a1.77,1.77,0,0,1-1.21-.1c-.29-.11-.49-.46-.7-.72a30,30,0,0,0-10.37-8.15c-.24-.12-.49-.23-.72-.36-.74-.4-1-1-.73-1.62a1.19,1.19,0,0,1,1.75-.5c1.86,1,3.75,2,5.52,3.18a29.16,29.16,0,0,1,6.66,6.27A8.34,8.34,0,0,1,1353.89,3363.1Z" transform="translate(-1301.46 -3345.09)"/><path class="cls-1" d="M1350.82,3380.41a1.18,1.18,0,0,1-1,1.09,1.12,1.12,0,0,1-1.28-.94c-.31-1.41-.5-2.85-.87-4.23a19.49,19.49,0,0,0-3.91-7.4c-.16-.19-.33-.38-.47-.58a1.18,1.18,0,1,1,1.85-1.47,31.82,31.82,0,0,1,2,2.63A23.28,23.28,0,0,1,1350.82,3380.41Z" transform="translate(-1301.46 -3345.09)"/><path class="cls-1" d="M1309.43,3364.79a7.47,7.47,0,0,1-1,1.24,24.91,24.91,0,0,0-4.46,7.88c0,.14-.09.28-.15.41-.31.77-.89,1.08-1.55.82a1.14,1.14,0,0,1-.67-1.62,43.9,43.9,0,0,1,2.4-5.26,49.31,49.31,0,0,1,3.47-4.72,5.32,5.32,0,0,1,1.12-.81c.39.32.84.52,1,.83A1.7,1.7,0,0,1,1309.43,3364.79Z" transform="translate(-1301.46 -3345.09)"/><path class="cls-1" d="M1321.4,3356.9c0,.59-.49.89-1.08,1.14-1.7.73-3.41,1.46-5.08,2.26a20.1,20.1,0,0,0-2,1.26c-.78.5-1.47.45-1.89-.14s-.24-1.29.57-1.85a28.4,28.4,0,0,1,7.65-3.82C1320.58,3355.44,1321.39,3355.91,1321.4,3356.9Z" transform="translate(-1301.46 -3345.09)"/><path class="cls-1" d="M1341.46,3364.85a1.2,1.2,0,0,1-1.79.32,21.73,21.73,0,0,0-6.51-2.94,1.15,1.15,0,0,1-.92-1.38,1.37,1.37,0,0,1,1.33-1.06c1.42.53,2.86,1,4.23,1.6a27.55,27.55,0,0,1,3.12,1.78A1.19,1.19,0,0,1,1341.46,3364.85Z" transform="translate(-1301.46 -3345.09)"/><path class="cls-1" d="M1311.75,3405.13c-.7.18-1.24-.23-1.53-1.1-.79-2.38-.61-4.84-.58-7.28a1.11,1.11,0,0,1,1.17-1.07,1.15,1.15,0,0,1,1.15,1.1c0,.69,0,1.38,0,2.06l-.18,0c.25,1.51.47,3,.75,4.53C1312.7,3404.28,1312.44,3405,1311.75,3405.13Z" transform="translate(-1301.46 -3345.09)"/><path class="cls-1" d="M1326.83,3365.3a1.23,1.23,0,0,1-1,1.13c-1.57.45-3.13.91-4.7,1.38a1.21,1.21,0,0,1-1.55-.59,1.12,1.12,0,0,1,.63-1.58c1.71-.57,3.44-1.09,5.19-1.52A1.16,1.16,0,0,1,1326.83,3365.3Z" transform="translate(-1301.46 -3345.09)"/><path class="cls-1" d="M1345.41,3350.13c-.06,1-.81,1.6-1.52,1.31-1.58-.64-3.14-1.34-4.68-2.06a1.16,1.16,0,0,1,1-2.11c1.53.63,3.06,1.28,4.55,2C1345.06,3349.45,1345.26,3349.94,1345.41,3350.13Z" transform="translate(-1301.46 -3345.09)"/></svg>