<svg id="Layer_1" data-name="Layer 1" xmlns="http://www.w3.org/2000/svg" viewBox="0 0 52.14 52.27"><defs><style>.cls-1{fill:#00a386;}</style></defs><path class="cls-1" d="M1363.37,3377.89c0-.08,0-.17,0-.24-.06-.36-.1-.72-.15-1.08-.1-.78-.21-1.57-.38-2.36a25.84,25.84,0,0,0-9.42-15,11.1,11.1,0,0,0-1.24-.85,1.22,1.22,0,0,0-1.66.39,1.27,1.27,0,0,0,.07,1.69,2.9,2.9,0,0,0,.49.42,23,23,0,0,1,9.19,14.36,25.37,25.37,0,0,1,.38,3.48c0,.49.07,1,.11,1.46a1.66,1.66,0,0,0,.56,1.21,1.07,1.07,0,0,0,.67.23.62.62,0,0,0,.19,0,2,2,0,0,0,.83-.44l.24-.17.22-.15v-2.66Z" transform="translate(-1311.28 -3353.54)"/><path class="cls-1" d="M1344.06,3387.77a1.33,1.33,0,0,0-1.5,1.06,4,4,0,0,0-.1.53c-.07.38-.14.76-.2,1.14-.14.81-.29,1.65-.49,2.45a32.22,32.22,0,0,1-4.57,10.45,1.44,1.44,0,0,0,.33,2.3l.14.11h.88l.15-.15.21-.19a2.48,2.48,0,0,0,.57-.63l.63-1.08c.73-1.25,1.49-2.54,2.12-3.88a34,34,0,0,0,3-10.53A1.38,1.38,0,0,0,1344.06,3387.77Z" transform="translate(-1311.28 -3353.54)"/><path class="cls-1" d="M1351.52,3382.62c-.16-1.51-.31-2.93-.52-4.36a13.57,13.57,0,0,0-5.8-9.72,13.72,13.72,0,0,0-20.43,5.78,12.83,12.83,0,0,0-1,7.2l0,.34a18.41,18.41,0,0,1,.29,4.84,1.41,1.41,0,0,0,.33,1.08,1.32,1.32,0,0,0,1,.46,1.39,1.39,0,0,0,1.44-1.42,18.19,18.19,0,0,0-.27-4.85,11,11,0,0,1,12.18-13.08,10.42,10.42,0,0,1,8.82,6.89,23.52,23.52,0,0,1,1.26,7.23,37.69,37.69,0,0,1-.42,8.4,1.39,1.39,0,0,0,1.12,1.7l.21,0a1.35,1.35,0,0,0,.79-.27,1.57,1.57,0,0,0,.58-1.08c.15-1.61.3-3.23.44-4.79l.21-2.22v-.05C1351.67,3384,1351.6,3383.3,1351.52,3382.62Z" transform="translate(-1311.28 -3353.54)"/><path class="cls-1" d="M1336.12,3359.93a22.36,22.36,0,0,0-2.57.33,19.79,19.79,0,0,0-15.76,15.85,1.66,1.66,0,0,0,.2,1.29,1.32,1.32,0,0,0,.88.53c.6.11,1.33-.18,1.59-1.31l.09-.43c0-.21.08-.42.13-.63a17.17,17.17,0,0,1,28.7-8,16.28,16.28,0,0,1,4.48,7.67c.21.78.36,1.6.51,2.4.06.32.12.65.19,1a1.61,1.61,0,0,0,.66,1,1.25,1.25,0,0,0,.7.21,1.09,1.09,0,0,0,.26,0,1.39,1.39,0,0,0,1.06-1.73c-.08-.41-.15-.84-.22-1.26a19.66,19.66,0,0,0-6.45-11.87,20.33,20.33,0,0,0-13.83-5.09Z" transform="translate(-1311.28 -3353.54)"/><path class="cls-1" d="M1317.37,3366.55a1.38,1.38,0,0,0,.74-.22,1.87,1.87,0,0,0,.56-.56,22,22,0,0,1,4.06-4.2,23.48,23.48,0,0,1,24.79-2.82,1.35,1.35,0,0,0,1.93-.62h0a1.4,1.4,0,0,0-.83-1.85,26.26,26.26,0,0,0-10.73-2.57l0-.17-.66.06-1.48.16a35.57,35.57,0,0,0-3.65.51,25.65,25.65,0,0,0-14.13,8.08c-.59.67-1.15,1.4-1.61,2a1.32,1.32,0,0,0,.12,1.8A1.29,1.29,0,0,0,1317.37,3366.55Z" transform="translate(-1311.28 -3353.54)"/><path class="cls-1" d="M1339.23,3384.22c0-.75-.12-1.75-.22-2.74-.06-.65-.19-1.29-.31-1.92a1.35,1.35,0,0,0-1.6-1.11,1.31,1.31,0,0,0-1.08,1.48,3.58,3.58,0,0,0,.06.51,26.31,26.31,0,0,1-1.45,14.68,26.8,26.8,0,0,1-4.54,7.44,1.58,1.58,0,0,0-.46,1.22,1.27,1.27,0,0,0,.5.89,1.25,1.25,0,0,0,.81.3,1.66,1.66,0,0,0,1.2-.61,29.39,29.39,0,0,0,7.13-19.55Z" transform="translate(-1311.28 -3353.54)"/><path class="cls-1" d="M1330.91,3379.8a1.38,1.38,0,0,0,1.69-1c0-.12.07-.24.1-.36l0-.15a4.8,4.8,0,0,1,8.78-1,7.85,7.85,0,0,1,.82,3.05c.13,1.12.21,2.28.3,3.4l.09,1.29c.07.89.57,1.43,1.35,1.43a1.37,1.37,0,0,0,1.36-1.51v-.21h.16l-.07-.56-.21-1.74c-.15-1.27-.3-2.58-.51-3.87a7.2,7.2,0,0,0-5.44-6.13,7.29,7.29,0,0,0-8,2.6,7,7,0,0,0-1.41,3A1.39,1.39,0,0,0,1330.91,3379.8Z" transform="translate(-1311.28 -3353.54)"/><path class="cls-1" d="M1333.1,3385l0-.77c0-.58-.08-1.23-.15-1.87a1.54,1.54,0,0,0-.54-1.1,1.34,1.34,0,0,0-1-.25,1.3,1.3,0,0,0-.85.49,1.6,1.6,0,0,0-.26,1.21,20.19,20.19,0,0,1-5,16c-.21.24-.42.47-.65.69s-.46.48-.68.74a1.32,1.32,0,0,0,0,1.79,1.28,1.28,0,0,0,1,.43,1.39,1.39,0,0,0,.85-.29,3.08,3.08,0,0,0,.36-.32,23.12,23.12,0,0,0,7-16.74Z" transform="translate(-1311.28 -3353.54)"/><path class="cls-1" d="M1314.64,3385.08c-.05-.34-.12-.68-.18-1-.14-.71-.27-1.45-.34-2.18a21.85,21.85,0,0,1,1.11-9.51c.27-.77.6-1.53.92-2.28.12-.28.25-.57.37-.86h0a1.54,1.54,0,0,0-.07-1.44,1.43,1.43,0,0,0-1.23-.6c-.33,0-.81.16-1.18.92a25.84,25.84,0,0,0-2.55,14.84c.11.91.31,1.83.49,2.72l.06.25a1.36,1.36,0,0,0,1.33,1.14,1.43,1.43,0,0,0,.29,0,1.37,1.37,0,0,0,1-1.62.63.63,0,0,0,0-.19Z" transform="translate(-1311.28 -3353.54)"/><path class="cls-1" d="M1357.77,3383.78c0-.48,0-1-.07-1.41a1.35,1.35,0,1,0-2.7.09c0,.13,0,.26,0,.41a43.6,43.6,0,0,1-.37,8.36c-.22,1.33-.49,2.68-.76,4l-.29,1.47a1.36,1.36,0,0,0,.72,1.69,1.46,1.46,0,0,0,.6.14,1.12,1.12,0,0,0,.48-.1,1.62,1.62,0,0,0,.86-1.17,48.27,48.27,0,0,0,1.54-11.8v-.31c0-.22,0-.44,0-.66Z" transform="translate(-1311.28 -3353.54)"/><path class="cls-1" d="M1320.72,3385l-.54-4.48c-.12-.89-.66-1.39-1.42-1.34a1.32,1.32,0,0,0-.94.43,1.52,1.52,0,0,0-.33,1.16c.08,1,.2,2,.35,2.91a8.18,8.18,0,0,1-.48,4.69,8.74,8.74,0,0,1-2.14,3,1.36,1.36,0,0,0,.84,2.4,1.5,1.5,0,0,0,1-.42,10.9,10.9,0,0,0,3.65-8.26Z" transform="translate(-1311.28 -3353.54)"/><path class="cls-1" d="M1325.8,3391.17l.08-.24v-.1a1.35,1.35,0,0,0-1-1.28,1.29,1.29,0,0,0-1.51.59,7,7,0,0,0-.34.74c-.07.15-.13.31-.21.47a14.65,14.65,0,0,1-3.67,4.72,1.62,1.62,0,0,0-.61,1.07,1.36,1.36,0,0,0,.32,1,1.3,1.3,0,0,0,1,.47,1.69,1.69,0,0,0,1.07-.43,17.12,17.12,0,0,0,4.77-6.58A2.78,2.78,0,0,0,1325.8,3391.17Z" transform="translate(-1311.28 -3353.54)"/><path class="cls-1" d="M1349.09,3394.26a1.37,1.37,0,0,0-1.53,1.12,43,43,0,0,1-2.52,6.71,1.41,1.41,0,0,0,.59,1.95,1.37,1.37,0,0,0,.59.13,1.44,1.44,0,0,0,.46-.08,1.56,1.56,0,0,0,.84-.9c.72-1.77,1.44-3.54,2.13-5.32.17-.47.29-.94.4-1.36.06-.2.11-.4.16-.57l0-.14A1.44,1.44,0,0,0,1349.09,3394.26Z" transform="translate(-1311.28 -3353.54)"/></svg>