<svg id="Layer_1" data-name="Layer 1" xmlns="http://www.w3.org/2000/svg" viewBox="0 0 15.37 17.57"><defs><style>.cls-1{fill:#00a385;}</style></defs><path class="cls-1" d="M89.71,30.79a5.86,5.86,0,0,1,3.1.72,6.3,6.3,0,0,1,3.07,4.1,5.27,5.27,0,0,1,.18,2A1.54,1.54,0,0,1,94.71,39a1.51,1.51,0,0,1-1.6-1.14,3,3,0,0,1-.07-.8,3.39,3.39,0,0,0-.35-1.43,2.88,2.88,0,0,0-4.84-.55,3.46,3.46,0,0,0-.65,3.1,6.1,6.1,0,0,0,1.27,2.51,7.19,7.19,0,0,0,2.33,2,2.14,2.14,0,0,0,1,.29.55.55,0,0,0,.53-.53.55.55,0,0,0-.48-.56,1.57,1.57,0,0,1-.73-.26,6.82,6.82,0,0,1-2.57-2.83,3.06,3.06,0,0,1-.29-2.14,1.94,1.94,0,0,1,1.25-1.46,1.83,1.83,0,0,1,2.34,1.39,6.63,6.63,0,0,1,.08,1,2.62,2.62,0,0,0,5.24,0,7.8,7.8,0,0,0-1.64-5.16A6.9,6.9,0,0,0,88,30a7.34,7.34,0,0,0-5.07,6.64,7.51,7.51,0,0,0,.62,3.4,6.82,6.82,0,0,0,1,1.66.54.54,0,0,0,.54.21.56.56,0,0,0,.44-.41.65.65,0,0,0-.17-.56,6.28,6.28,0,0,1-1.08-5.64A6,6,0,0,1,89.71,30.79ZM85,37c.08.42.12.86.23,1.27a8.84,8.84,0,0,0,1.56,3.07c.36.49.76,1,1.17,1.41a.55.55,0,0,0,.92-.16.58.58,0,0,0-.17-.65A11.64,11.64,0,0,1,86.5,38.8a4.18,4.18,0,0,1,0-3.46,3.89,3.89,0,0,1,6.4-1.2A4.09,4.09,0,0,1,94,37a.59.59,0,0,0,.57.63.58.58,0,0,0,.54-.66,5.25,5.25,0,0,0-.83-2.75,5,5,0,0,0-5.9-2.06A5.31,5.31,0,0,0,85,37Zm5-9.5c-.31,0-.74,0-1.17.11a8,8,0,0,0-1.08.23,9.2,9.2,0,0,0-5.22,3.78.55.55,0,0,0,.34.84.55.55,0,0,0,.58-.23c.31-.39.6-.79.93-1.14a7.9,7.9,0,0,1,8.9-1.81,8,8,0,0,1,3.47,2.89.57.57,0,0,0,.83.21.55.55,0,0,0,.08-.83c-.25-.35-.51-.69-.79-1A9.18,9.18,0,0,0,89.93,27.53Zm-.47,9.32c0,.21,0,.4.05.59a5.69,5.69,0,0,0,2.28,3.7,3.57,3.57,0,0,0,1.93.75.56.56,0,0,0,.65-.51.54.54,0,0,0-.56-.59,2.21,2.21,0,0,1-.92-.25,4.08,4.08,0,0,1-1.71-1.66,4.4,4.4,0,0,1-.62-2.18.55.55,0,0,0-1.07-.2A2.26,2.26,0,0,0,89.46,36.85ZM89.4,25.4l-.32,0A9.45,9.45,0,0,0,85,26.83c-.53.34-1,.74-1.51,1.13a.51.51,0,0,0-.17.58.54.54,0,0,0,.48.39.72.72,0,0,0,.54-.25,8.58,8.58,0,0,1,9.32-1.38,9,9,0,0,1,2.22,1.48.53.53,0,0,0,.78,0,.55.55,0,0,0,0-.79,9.69,9.69,0,0,0-5.14-2.45l-.78-.11Z" transform="translate(-82.37 -25.4)"/><path class="cls-1" d="M90.7,25.4l.78.1A9.7,9.7,0,0,1,96.62,28a.55.55,0,1,1-.74.81,9.06,9.06,0,0,0-2.21-1.47,8.48,8.48,0,0,0-4.15-.78,8.59,8.59,0,0,0-5.18,2.15.68.68,0,0,1-.54.25.55.55,0,0,1-.48-.38.53.53,0,0,1,.17-.59c.5-.38,1-.79,1.51-1.12a9.45,9.45,0,0,1,4.08-1.39l.32,0Z" transform="translate(-82.37 -25.4)"/><path class="cls-1" d="M89.71,30.79a6,6,0,0,0-5.45,4.51,6.28,6.28,0,0,0,1.08,5.64.65.65,0,0,1,.17.56.56.56,0,0,1-.44.41.54.54,0,0,1-.54-.21,6.82,6.82,0,0,1-1-1.66,7.51,7.51,0,0,1-.62-3.4A7.34,7.34,0,0,1,88,30a6.9,6.9,0,0,1,7.55,2.43,7.8,7.8,0,0,1,1.64,5.16,2.62,2.62,0,0,1-5.24,0,6.63,6.63,0,0,0-.08-1,1.83,1.83,0,0,0-2.34-1.39,1.94,1.94,0,0,0-1.25,1.46,3.06,3.06,0,0,0,.29,2.14,6.82,6.82,0,0,0,2.57,2.83,1.57,1.57,0,0,0,.73.26.55.55,0,0,1,.48.56.55.55,0,0,1-.53.53,2.14,2.14,0,0,1-1-.29,7.19,7.19,0,0,1-2.33-2,6.1,6.1,0,0,1-1.27-2.51,3.46,3.46,0,0,1,.65-3.1,2.88,2.88,0,0,1,4.84.55A3.39,3.39,0,0,1,93,37.05a3,3,0,0,0,.07.8A1.51,1.51,0,0,0,94.71,39a1.54,1.54,0,0,0,1.35-1.33,5.27,5.27,0,0,0-.18-2,6.3,6.3,0,0,0-3.07-4.1A5.86,5.86,0,0,0,89.71,30.79Z" transform="translate(-82.37 -25.4)"/><path class="cls-1" d="M85,37a5.31,5.31,0,0,1,3.43-4.9,5,5,0,0,1,5.9,2.06,5.25,5.25,0,0,1,.83,2.75.58.58,0,0,1-.54.66A.59.59,0,0,1,94,37a4.09,4.09,0,0,0-1.15-2.83,3.89,3.89,0,0,0-6.4,1.2,4.18,4.18,0,0,0,0,3.46A11.64,11.64,0,0,0,88.66,42a.58.58,0,0,1,.17.65.55.55,0,0,1-.92.16c-.41-.46-.81-.92-1.17-1.41a8.84,8.84,0,0,1-1.56-3.07C85.07,37.89,85,37.45,85,37Z" transform="translate(-82.37 -25.4)"/><path class="cls-1" d="M89.93,27.53a9.18,9.18,0,0,1,6.87,3c.28.32.54.66.79,1a.55.55,0,0,1-.08.83.57.57,0,0,1-.83-.21,8,8,0,0,0-3.47-2.89,7.9,7.9,0,0,0-8.9,1.81c-.33.35-.62.75-.93,1.14a.55.55,0,0,1-.58.23.55.55,0,0,1-.34-.84,9.2,9.2,0,0,1,5.22-3.78,8,8,0,0,1,1.08-.23C89.19,27.58,89.62,27.56,89.93,27.53Z" transform="translate(-82.37 -25.4)"/><path class="cls-1" d="M89.46,36.85a2.26,2.26,0,0,1,0-.35.55.55,0,0,1,1.07.2,4.4,4.4,0,0,0,.62,2.18,4.08,4.08,0,0,0,1.71,1.66,2.21,2.21,0,0,0,.92.25.54.54,0,0,1,.56.59.56.56,0,0,1-.65.51,3.57,3.57,0,0,1-1.93-.75,5.69,5.69,0,0,1-2.28-3.7C89.48,37.25,89.48,37.06,89.46,36.85Z" transform="translate(-82.37 -25.4)"/></svg>