<svg id="Layer_1" data-name="Layer 1" xmlns="http://www.w3.org/2000/svg" viewBox="0 0 16.53 16.49"><defs><style>.cls-1{fill:#00a385;}</style></defs><path class="cls-1" d="M46.58,30.6l-6.91-5a.73.73,0,0,0-1,0q-3.42,2.47-6.85,4.94a2,2,0,0,0-.92,1.8v8.72a.74.74,0,0,0,.82.83h5a.78.78,0,0,0,.85-.85c0-1.05,0-2.1,0-3.15a1.51,1.51,0,1,1,3,0v3.2a.7.7,0,0,0,.75.75h5.28a.76.76,0,0,0,.78-.79V32.29A2,2,0,0,0,46.58,30.6ZM46,40.52H42v-2.6a2.88,2.88,0,0,0-5.71-.58,4.62,4.62,0,0,0,0,.65c0,.83,0,1.65,0,2.49h-4v-.17c0-2.67,0-5.34,0-8a.71.71,0,0,1,.32-.62L39,27.05a.17.17,0,0,1,.24,0l6.4,4.64a.77.77,0,0,1,.35.69Z" transform="translate(-30.91 -25.43)"/></svg>