<svg id="Layer_1" data-name="Layer 1" xmlns="http://www.w3.org/2000/svg" viewBox="0 0 23.54 23.54"><defs><style>.cls-1{fill:#00a385;}</style></defs><path class="cls-1" d="M100.55,35.09c-.29,0-.57,0-.86,0H98.8V33.22a2.24,2.24,0,0,0-1.92-2.32c0-.24,0-.48,0-.73a15.81,15.81,0,0,0-.06-1.68,6.57,6.57,0,0,0-3.29-5.07,6.41,6.41,0,0,0-2.72-.91l-.1,0H89.43l-.41.08a6.55,6.55,0,0,0-.9.21,6.64,6.64,0,0,0-4.74,5.33,6.74,6.74,0,0,0-.09,1.26v.35c0,.34,0,.67,0,1v.16l-.1,0a2.25,2.25,0,0,0-1.81,2.17c0,.47,0,1,0,1.42v.57H79.81a1.48,1.48,0,0,0-1.46,1.08l0,.07v4.43l0,.05a1.5,1.5,0,0,0,1.07,1.06,2.2,2.2,0,0,0,.49.05h1.47V43.7A2.23,2.23,0,0,0,83.66,46H96.48a2.22,2.22,0,0,0,2.32-2.3v-1.9h1.45a2.28,2.28,0,0,0,.57-.07,1.42,1.42,0,0,0,1-1.37c0-1.28,0-2.56,0-3.85A1.41,1.41,0,0,0,100.55,35.09Zm-16.1-6.72a5.63,5.63,0,0,1,4.46-4.69,5.69,5.69,0,0,1,6.78,4.55,12.74,12.74,0,0,1,.11,2c0,.32,0,.64,0,1H94.28v-.27c0-.73,0-1.46,0-2.19a4.19,4.19,0,0,0-8.29-.16,4.1,4.1,0,0,0-.06.86c0,.58,0,1.16,0,1.75H84.39l0,0A23.17,23.17,0,0,1,84.45,28.37Zm2.36-.14a3.46,3.46,0,0,1,3.44-2.38,3.39,3.39,0,0,1,3.21,2.92,19.19,19.19,0,0,1,0,2.4H86.63A12,12,0,0,1,86.81,28.23Zm-4.36,5A1.14,1.14,0,0,1,83.7,32H96.47a1.14,1.14,0,0,1,1.24,1.21c0,.67,0,1.34,0,2a1.37,1.37,0,0,1,0,.19H82.46a1.7,1.7,0,0,1,0-.22C82.44,34.5,82.44,33.85,82.45,33.21ZM97.71,43.67a1.16,1.16,0,0,1-1.28,1.27H83.72a1.17,1.17,0,0,1-1.28-1.28V41.74a2.32,2.32,0,0,1,0-.24H97.69a1.8,1.8,0,0,1,0,.22Zm3.06-3.5c0,.45-.11.56-.55.56H79.93c-.43,0-.55-.11-.55-.54V36.68c0-.4.12-.52.52-.52h20.33c.43,0,.54.11.54.54Z" transform="translate(-78.31 -22.47)"/><path class="cls-1" d="M91.5,38.21a.6.6,0,0,0,.2-.86.58.58,0,0,0-.85-.13l-.18.11a.54.54,0,0,0-.59-.6c-.5,0-.58.34-.6.6l-.18-.11a.59.59,0,0,0-.87.15.6.6,0,0,0,.22.84l.36.24-.36.24a.59.59,0,0,0,.14,1.09.68.68,0,0,0,.51-.1l.18-.12c0,.26.1.61.6.61h0c.48,0,.56-.35.58-.61l.24.15a.51.51,0,0,0,.69-.07.8.8,0,0,0,.19-.53h0a.62.62,0,0,0-.29-.41c-.11-.09-.23-.17-.35-.25l.17-.11Z" transform="translate(-78.31 -22.47)"/><path class="cls-1" d="M95.68,38.67l-.33-.22.33-.23a.6.6,0,0,0,.23-.87.59.59,0,0,0-.89-.11l-.15.1c0-.27-.1-.61-.59-.61s-.58.34-.6.61l-.18-.12a.58.58,0,0,0-.85.12.6.6,0,0,0-.1.43.72.72,0,0,0,.3.44l.36.24-.36.24a.59.59,0,0,0-.21.83.58.58,0,0,0,.86.15l.18-.11c0,.25.1.59.57.61h0a.57.57,0,0,0,.4-.14.66.66,0,0,0,.18-.48l.15.1a.6.6,0,0,0,.9-.12h0A.6.6,0,0,0,95.68,38.67Z" transform="translate(-78.31 -22.47)"/><path class="cls-1" d="M87.51,37.36a.54.54,0,0,0-.35-.25.73.73,0,0,0-.57.15l-.12.08h0a.58.58,0,0,0-.57-.61.6.6,0,0,0-.62.6v0l-.21-.14a.59.59,0,1,0-.65,1c.13.09.25.18.39.26l-.37.25a.6.6,0,0,0-.2.85.59.59,0,0,0,.85.14l.2-.12a.68.68,0,0,0,.17.47.6.6,0,0,0,.41.14h0a.55.55,0,0,0,.56-.61l.14.09a.6.6,0,0,0,.89-.1.52.52,0,0,0,.1-.43.74.74,0,0,0-.34-.46L87,38.45l.28-.2C87.79,37.88,87.59,37.48,87.51,37.36Z" transform="translate(-78.31 -22.47)"/><path class="cls-1" d="M83.09,38.68l-.34-.23,0,0,.32-.22a.68.68,0,0,0,.29-.43.56.56,0,0,0-.1-.43.59.59,0,0,0-.85-.12l-.18.12c0-.27-.09-.61-.59-.61h0c-.5,0-.57.35-.58.61l-.18-.12a.59.59,0,0,0-.87.14.58.58,0,0,0,.22.85l.35.24-.35.23a.59.59,0,0,0-.22.86.61.61,0,0,0,.87.13l.18-.11c0,.26.08.61.58.61h0a.56.56,0,0,0,.59-.62l.16.11a.71.71,0,0,0,.53.12.55.55,0,0,0,.36-.26A.6.6,0,0,0,83.09,38.68Z" transform="translate(-78.31 -22.47)"/><path class="cls-1" d="M99.58,39H97.37a.58.58,0,0,0-.63.6.59.59,0,0,0,.63.57h2.21a.6.6,0,0,0,.64-.59h0A.59.59,0,0,0,99.58,39Z" transform="translate(-78.31 -22.47)"/><path class="cls-1" d="M83.58,34.84h0a.62.62,0,0,0,.6-.68c0-.15,0-.31,0-.46h.52a.6.6,0,0,0,.47-1,.67.67,0,0,0-.47-.19h-1a.6.6,0,0,0-.66.66c0,.33,0,.66,0,1A.62.62,0,0,0,83.58,34.84Z" transform="translate(-78.31 -22.47)"/></svg>