<svg id="Layer_1" data-name="Layer 1" xmlns="http://www.w3.org/2000/svg" viewBox="0 0 12.13 17.47"><defs><style>.cls-1{fill:#6d6e71;}</style></defs><path class="cls-1" d="M161.7,29.79A6,6,0,0,0,160,26.67a5.87,5.87,0,0,0-2.69-1.57c-.38-.09-.77-.14-1.15-.21h-.89c-.33.05-.66.09-1,.17a5.85,5.85,0,0,0-3.25,2,6.05,6.05,0,0,0,1.66,9.11.21.21,0,0,1,.12.22v1a.66.66,0,0,0,.75.75h4.29a.64.64,0,0,0,.72-.72c0-.31,0-.61,0-.92a.34.34,0,0,1,.2-.36A6.07,6.07,0,0,0,161.7,29.79Zm-2.38,4.34a4.44,4.44,0,0,1-1.51,1.14.72.72,0,0,0-.47.76c0,.28,0,.56,0,.87h-3.2a.69.69,0,0,1,0-.13V36a.76.76,0,0,0-.46-.76,4.61,4.61,0,0,1-2.09-2,4.54,4.54,0,0,1-.56-3.14,4.79,4.79,0,0,1,7.88-2.82A4.5,4.5,0,0,1,160.44,30,4.67,4.67,0,0,1,159.32,34.13Z" transform="translate(-149.68 -24.89)"/><path class="cls-1" d="M157.87,40.15a.86.86,0,0,1-.38.13H154A.63.63,0,1,1,154,39c.58,0,1.16,0,1.74,0s1.17,0,1.76,0a.62.62,0,0,1,.59.44A.6.6,0,0,1,157.87,40.15Z" transform="translate(-149.68 -24.89)"/><path class="cls-1" d="M157.11,41.73a.61.61,0,0,1-.62.63H155a.63.63,0,0,1,0-1.26h1.49A.63.63,0,0,1,157.11,41.73Z" transform="translate(-149.68 -24.89)"/></svg>