<svg id="Layer_1" data-name="Layer 1" xmlns="http://www.w3.org/2000/svg" viewBox="0 0 49.5 73.26"><defs><style>.cls-1{fill:#f4f7fc;}.cls-2{fill:none;}</style></defs><path class="cls-1" d="M1725.87,3492c5.66.22,13.71-.09,19.79-1.64A128.19,128.19,0,0,1,1725.87,3492Z" transform="translate(-1704.61 -3418.82)"/><path class="cls-2" d="M1732.63,3471.46c-1.17,2.71-.07,6.35-.47,9.37a2.64,2.64,0,0,1-4,2.22c-2.2-1.34-1.05-4.36-1.31-6.49h0c-.2-1.62.51-3.66-.42-5-3.82-2.48-2.56-8.77,1.91-9.57C1733.85,3460.47,1737.39,3468.35,1732.63,3471.46Z" transform="translate(-1704.61 -3418.82)"/><path class="cls-1" d="M1751.79,3456.53a1.93,1.93,0,0,1-1.45-.72,65.56,65.56,0,0,0-7.8-2v.05a62.11,62.11,0,0,0-26,0l-.09-1.36c-.13-2.29-.11-10.15.07-12.5.51-6.59,2.85-12.72,10.47-14.16,10.74-1.93,15.22,6.28,15.87,15.11,2.23.31,4.41.68,6.51,1.1.1-4.43.25-9.35-1.77-11.92-6-13.87-26.83-15.28-34.65-2.38-2.71,3.87-3.26,8.31-3.31,12.85,0,2.43,0,10.34,0,12.75,0,.54,0,1.06,0,1.59.06,1.31-1.65,1.15-2.5,1.66-4.56,2.47-1.25,10.69-2.21,15.17,0,6.06-.32,9.86,0,12.4.69,4.92,3.81,5.05,15.95,7.47a46.36,46.36,0,0,0,5,.41,128.19,128.19,0,0,0,19.79-1.64c4.43-1.12,7.81-2.9,8.45-5.62v-24.92C1754.11,3458,1753.57,3457.17,1751.79,3456.53Zm-19.16,14.93c-1.17,2.71-.07,6.35-.47,9.37a2.64,2.64,0,0,1-4,2.22c-2.2-1.34-1.05-4.36-1.31-6.49h0c-.2-1.62.51-3.66-.42-5-3.82-2.48-2.56-8.77,1.91-9.57C1733.85,3460.47,1737.39,3468.35,1732.63,3471.46Z" transform="translate(-1704.61 -3418.82)"/><path class="cls-2" d="M1732.63,3471.46c-1.17,2.71-.07,6.35-.47,9.37a2.64,2.64,0,0,1-4,2.22c-2.2-1.34-1.05-4.36-1.31-6.49h0c-.2-1.62.51-3.66-.42-5-3.82-2.48-2.56-8.77,1.91-9.57C1733.85,3460.47,1737.39,3468.35,1732.63,3471.46Z" transform="translate(-1704.61 -3418.82)"/></svg>