<svg id="Layer_1" data-name="Layer 1" xmlns="http://www.w3.org/2000/svg" viewBox="0 0 11.44 7.33"><defs><style>.cls-1{fill:#292937;}</style></defs><path class="cls-1" d="M90.47,31.2H84.82a.5.5,0,0,1-.5-.5.5.5,0,0,1,.5-.5h5.65a.5.5,0,0,1,.5.5A.5.5,0,0,1,90.47,31.2Z" transform="translate(-84.32 -30.2)"/><path class="cls-1" d="M95.26,34.37H84.82a.5.5,0,0,1-.5-.5.5.5,0,0,1,.5-.5H95.26a.5.5,0,0,1,.5.5A.51.51,0,0,1,95.26,34.37Z" transform="translate(-84.32 -30.2)"/><path class="cls-1" d="M95.26,37.53H89.6a.51.51,0,0,1-.5-.5.5.5,0,0,1,.5-.5h5.66a.5.5,0,0,1,.5.5A.51.51,0,0,1,95.26,37.53Z" transform="translate(-84.32 -30.2)"/></svg>