<svg id="Layer_1" data-name="Layer 1" xmlns="http://www.w3.org/2000/svg" viewBox="0 0 19.7 20.89"><defs><style>.cls-1{fill:#f7a28f;}</style></defs><path class="cls-1" d="M83.68,23.43a2.26,2.26,0,0,0-2.29-2.1,14.85,14.85,0,0,0-1.87.3c-.69.09-1.37.22-2,.35s-1.38.21-2.06.36-1.53.24-2.28.39L71.41,23a3.2,3.2,0,0,0-1.21.32,2.11,2.11,0,0,0-1.21,2c0,3,0,5.95,0,8.93,0,.2,0,.26-.24.2a3.44,3.44,0,0,0-2,.09,3.34,3.34,0,0,0-1.5.84l-.09.07A3.85,3.85,0,0,0,64.05,39a3.61,3.61,0,0,0,1.2,2.18,3.91,3.91,0,0,0,3.5,1,3.46,3.46,0,0,0,1.5-.67,4.49,4.49,0,0,0,.46-.41,2.71,2.71,0,0,0,.75-1,3.52,3.52,0,0,0,.41-1.74c0-1.41,0-2.82,0-4.22V29.17a.75.75,0,0,1,.67-.81l.59-.11,2.28-.36,2.11-.34,2-.31.29,0a.77.77,0,0,1,1,.84v4.3c0,.23-.06.28-.27.2a.88.88,0,0,0-.48-.06,1.83,1.83,0,0,0-.84,0,3.45,3.45,0,0,0-1.72.62l-.16.1a3.94,3.94,0,0,0-1.47,4.16,3.75,3.75,0,0,0,1.62,2.27,3.42,3.42,0,0,0,1.73.64,2,2,0,0,0,.84,0,3.18,3.18,0,0,0,1.32-.37,1.36,1.36,0,0,0,.21-.1,3.81,3.81,0,0,0,2-3.46q0-6.35,0-12.68C83.69,23.58,83.68,23.51,83.68,23.43Z" transform="translate(-63.99 -21.33)"/></svg>