<svg id="Layer_1" data-name="Layer 1" xmlns="http://www.w3.org/2000/svg" viewBox="0 0 18.21 18.21"><defs><style>.cls-1{fill:#00a385;}</style></defs><path class="cls-1" d="M99.19,35.13v6.55a.12.12,0,0,0,0,.08,1.94,1.94,0,0,1-1.92,1.59H82.93a1.93,1.93,0,0,1-2-2V27.11a1.94,1.94,0,0,1,1.3-1.85l.37-.12h6.51a.59.59,0,0,1,.38.47.53.53,0,0,1-.56.6H83a.89.89,0,0,0-1,1q0,7.06,0,14.14a.9.9,0,0,0,1,1H97.15a.9.9,0,0,0,1-1q0-3,0-6a.53.53,0,0,1,.3-.51.48.48,0,0,1,.57.06A1.94,1.94,0,0,1,99.19,35.13Z" transform="translate(-80.98 -25.14)"/><path class="cls-1" d="M99.19,32.58v.71a.59.59,0,0,1-.49.38.51.51,0,0,1-.58-.54,6.95,6.95,0,0,0-5.79-6.82c-.36,0-.73-.08-1.09-.1a.56.56,0,0,1-.58-.42.56.56,0,0,1,.34-.62s0,0,0,0h.72c.31.05.62.08.91.14A7.88,7.88,0,0,1,98.89,31a13.35,13.35,0,0,1,.26,1.43A.74.74,0,0,0,99.19,32.58Z" transform="translate(-80.98 -25.14)"/><path class="cls-1" d="M96.43,37.07A1.89,1.89,0,0,0,95,35.94a8.59,8.59,0,0,0-1-.08v0h-.66a.53.53,0,0,0-.59.56c0,1.4,0,2.82,0,4.22a.54.54,0,0,0,.58.54H94.5a2,2,0,0,0,1.86-1.08A3.2,3.2,0,0,0,96.43,37.07Zm-.94,2.42a1,1,0,0,1-.93.64h-.7V36.94a7.46,7.46,0,0,1,1,.06.92.92,0,0,1,.68.59A2.22,2.22,0,0,1,95.49,39.49Z" transform="translate(-80.98 -25.14)"/><path class="cls-1" d="M85.69,39.25l-.13-.15.08,0a1.69,1.69,0,0,0,1.13-1.69,1.63,1.63,0,0,0-1.42-1.47,9.16,9.16,0,0,0-1.39,0,.52.52,0,0,0-.56.56v4.2a.81.81,0,0,0,0,.16.53.53,0,0,0,.58.4.51.51,0,0,0,.47-.52c0-.38,0-.77,0-1.2l.2.21q.56.64,1.14,1.29a.53.53,0,0,0,.79.09.56.56,0,0,0,0-.81C86.29,39.93,86,39.59,85.69,39.25Zm-.52-1.16c-.22,0-.46,0-.7,0V36.94a6.84,6.84,0,0,1,.79.05.55.55,0,0,1,.44.56A.61.61,0,0,1,85.17,38.09Z" transform="translate(-80.98 -25.14)"/><path class="cls-1" d="M97.05,33.1a.54.54,0,1,1-1.07,0,4.77,4.77,0,0,0-3.58-4.6,7.73,7.73,0,0,0-1.16-.17c-.37,0-.59-.22-.59-.54a.54.54,0,0,1,.61-.53h.11a5.86,5.86,0,0,1,5.68,5.83Z" transform="translate(-80.98 -25.14)"/><path class="cls-1" d="M90.14,38.51a.56.56,0,0,1-.53.54H88.55v1.6a.54.54,0,0,1-.54.56.52.52,0,0,1-.53-.54q0-2.12,0-4.23a.51.51,0,0,1,.57-.55H89.7a.53.53,0,1,1,0,1.06H88.55v1h1.06A.56.56,0,0,1,90.14,38.51Z" transform="translate(-80.98 -25.14)"/><path class="cls-1" d="M91.18,31.54a1.61,1.61,0,1,0,1.6,1.61A1.59,1.59,0,0,0,91.18,31.54Zm0,2.13a.53.53,0,0,1-.54-.52.53.53,0,1,1,1.06,0A.53.53,0,0,1,91.19,33.67Z" transform="translate(-80.98 -25.14)"/><path class="cls-1" d="M94.92,33c0,.37-.12.58-.4.65a.54.54,0,0,1-.67-.54,2.68,2.68,0,0,0-2.69-2.64.53.53,0,0,1-.51-.55.51.51,0,0,1,.52-.51,4.87,4.87,0,0,1,.76.06A3.75,3.75,0,0,1,94.92,33Z" transform="translate(-80.98 -25.14)"/><path class="cls-1" d="M92,36.47v4.16a.54.54,0,1,1-1.07,0V36.47a.52.52,0,0,1,.52-.58A.54.54,0,0,1,92,36.47Z" transform="translate(-80.98 -25.14)"/></svg>