<svg id="Layer_1" data-name="Layer 1" xmlns="http://www.w3.org/2000/svg" viewBox="0 0 49.51 67.81"><defs><style>.cls-1{fill:#f4f7fc;}</style></defs><path class="cls-1" d="M1751.79,3456.53c-5.21-.3-.12-15.66-4.3-21-6-13.87-26.83-15.28-34.65-2.38-4.48,6.4-3.06,14.39-3.25,21.74.06,1.31-1.65,1.15-2.5,1.66-4.56,2.47-1.25,10.69-2.21,15.17-.1,17.81-2.41,16.19,16,19.87,7,1,31.4,1,33.25-6.85v-24.92C1754.11,3458,1753.57,3457.17,1751.79,3456.53Zm-19.16,14.93c-1.17,2.71-.07,6.35-.47,9.37a2.64,2.64,0,0,1-4,2.22c-2.2-1.34-1.05-4.36-1.31-6.49h0c-.2-1.62.51-3.66-.42-5-3.82-2.48-2.56-8.77,1.91-9.57C1733.85,3460.47,1737.39,3468.35,1732.63,3471.46Zm9.91-18.42v.8a62.11,62.11,0,0,0-26,0c-.62-8.88-.51-20.5,10.38-22.57C1740.34,3428.84,1744,3442.34,1742.54,3453Z" transform="translate(-1704.61 -3424.27)"/></svg>