<svg id="Layer_1" data-name="Layer 1" xmlns="http://www.w3.org/2000/svg" viewBox="0 0 17.4 20.88"><defs><style>.cls-1{fill:#00a385;}</style></defs><path class="cls-1" d="M94.83,28A4.88,4.88,0,0,0,91,24c-.2-.05-.41-.08-.62-.12H89.35l-.15,0a8.34,8.34,0,0,0-1.32.38,4.91,4.91,0,0,0-3,5.24,4.72,4.72,0,0,0,3.09,4A5,5,0,0,0,94.83,28Zm-4.94,4.79a3.81,3.81,0,1,1,3.81-3.8A3.83,3.83,0,0,1,89.89,32.74Z" transform="translate(-81.32 -23.91)"/><path class="cls-1" d="M98.6,39.14a8.25,8.25,0,0,0-.88-3A3.9,3.9,0,0,0,95,34.08a2,2,0,0,0-1.79.31,5.58,5.58,0,0,1-.7.45,4.83,4.83,0,0,1-2.18.73,4.76,4.76,0,0,1-3-.8c-.3-.18-.59-.39-.9-.56a1.31,1.31,0,0,0-.62-.21,3.7,3.7,0,0,0-1.92.47,4.25,4.25,0,0,0-1.91,2.32,10.89,10.89,0,0,0-.69,5.05,3,3,0,0,0,1,2,3.52,3.52,0,0,0,2.38.9c1.74,0,3.48,0,5.22,0h5a5.29,5.29,0,0,0,1-.08,3.3,3.3,0,0,0,2.76-3.28A21.78,21.78,0,0,0,98.6,39.14Zm-3.45,4.41c-1.38,0-2.76,0-4.14,0H85.1a3,3,0,0,1-1.37-.26,2,2,0,0,1-1.17-1.91,10.15,10.15,0,0,1,.64-4.15,3,3,0,0,1,1.39-1.7,4.51,4.51,0,0,1,.9-.29.72.72,0,0,1,.61.14,9.05,9.05,0,0,0,2,1.1,5.85,5.85,0,0,0,5.07-.61,4.71,4.71,0,0,0,.64-.42,1.08,1.08,0,0,1,1-.16,2.71,2.71,0,0,1,1.76,1.46,6.85,6.85,0,0,1,.75,2.54,18.14,18.14,0,0,1,.13,1.81A2.19,2.19,0,0,1,95.15,43.55Z" transform="translate(-81.32 -23.91)"/></svg>